<?xml version="1.0" encoding="UTF-8"?>
<svg xmlns="http://www.w3.org/2000/svg"
     xmlns:xlink="http://www.w3.org/1999/xlink"
     version="1.2"
     width="203.2mm" height="203.2mm" viewBox="0 0 203.2 203.2"
     stroke="none"
     fill="#000000"
     stroke-width="0.3"
     font-size="3.88"
>
<g stroke-width="1.22" stroke="#BBBBBB" id="img-0abce454-1">
  <path fill="none" d="M81.48,14.64 L 71.52 17.52"/>
  <path fill="none" d="M81,21.72 L 71.52 17.52"/>
  <path fill="none" d="M146.98,22.64 L 71.52 17.52"/>
  <path fill="none" d="M175.35,92.69 L 182.65 100.06"/>
  <path fill="none" d="M181.79,89.72 L 182.65 100.06"/>
  <path fill="none" d="M146.98,22.64 L 182.65 100.06"/>
  <path fill="none" d="M27.86,111.75 L 20.55 104.38"/>
  <path fill="none" d="M21.41,114.72 L 20.55 104.38"/>
  <path fill="none" d="M55.65,180.46 L 20.55 104.38"/>
  <path fill="none" d="M122.49,188.56 L 132.45 185.68"/>
  <path fill="none" d="M122.97,181.48 L 132.45 185.68"/>
  <path fill="none" d="M55.65,180.46 L 132.45 185.68"/>
  <path fill="none" d="M128.39,24.93 L 138.36 22.05"/>
  <path fill="none" d="M128.87,17.85 L 138.36 22.05"/>
  <path fill="none" d="M62.9,16.93 L 138.36 22.05"/>
  <path fill="none" d="M23.06,78.84 L 21.25 89.05"/>
  <path fill="none" d="M29.2,82.39 L 21.25 89.05"/>
  <path fill="none" d="M62.9,16.93 L 21.25 89.05"/>
  <path fill="none" d="M157.89,37.85 L 150.59 30.48"/>
  <path fill="none" d="M151.45,40.82 L 150.59 30.48"/>
  <path fill="none" d="M186.27,107.91 L 150.59 30.48"/>
  <path fill="none" d="M147.19,168.57 L 145.39 178.78"/>
  <path fill="none" d="M153.33,172.11 L 145.39 178.78"/>
  <path fill="none" d="M186.27,107.91 L 145.39 178.78"/>
  <path fill="none" d="M44.73,165.25 L 52.03 172.62"/>
  <path fill="none" d="M51.17,162.28 L 52.03 172.62"/>
  <path fill="none" d="M16.93,96.54 L 52.03 172.62"/>
  <path fill="none" d="M56.77,34.63 L 58.58 24.42"/>
  <path fill="none" d="M50.63,31.08 L 58.58 24.42"/>
  <path fill="none" d="M16.93,96.54 L 58.58 24.42"/>
  <path fill="none" d="M74.23,178.17 L 64.27 181.05"/>
  <path fill="none" d="M73.75,185.25 L 64.27 181.05"/>
  <path fill="none" d="M141.07,186.27 L 64.27 181.05"/>
  <path fill="none" d="M180.15,125.6 L 181.95 115.39"/>
  <path fill="none" d="M174.01,122.06 L 181.95 115.39"/>
  <path fill="none" d="M141.07,186.27 L 181.95 115.39"/>
</g>
<g stroke="#BBBBBB" fill="#AAAAFF" id="img-0abce454-2">
  <use xlink:href="#img-0abce454-3" x="146.98" y="22.64"/>
  <use xlink:href="#img-0abce454-4" x="55.65" y="180.46"/>
  <use xlink:href="#img-0abce454-5" x="62.9" y="16.93"/>
  <use xlink:href="#img-0abce454-6" x="186.27" y="107.91"/>
  <use xlink:href="#img-0abce454-7" x="16.93" y="96.54"/>
  <use xlink:href="#img-0abce454-8" x="141.07" y="186.27"/>
</g>
<g font-size="4" stroke="#000000" stroke-opacity="0.000" fill="#000000" id="img-0abce454-9">
  <text x="146.98" y="22.64" text-anchor="middle" dy="0.35em">6</text>
  <text x="55.65" y="180.46" text-anchor="middle" dy="0.35em">5</text>
  <text x="62.9" y="16.93" text-anchor="middle" dy="0.35em">4</text>
  <text x="186.27" y="107.91" text-anchor="middle" dy="0.35em">3</text>
  <text x="16.93" y="96.54" text-anchor="middle" dy="0.35em">2</text>
  <text x="141.07" y="186.27" text-anchor="middle" dy="0.35em">1</text>
</g>
<defs>
  <g id="img-0abce454-3">
    <circle cx="0" cy="0" r="8.64"/>
  </g>
  <g id="img-0abce454-4">
    <circle cx="0" cy="0" r="8.64"/>
  </g>
  <g id="img-0abce454-5">
    <circle cx="0" cy="0" r="8.64"/>
  </g>
  <g id="img-0abce454-6">
    <circle cx="0" cy="0" r="8.64"/>
  </g>
  <g id="img-0abce454-7">
    <circle cx="0" cy="0" r="8.64"/>
  </g>
  <g id="img-0abce454-8">
    <circle cx="0" cy="0" r="8.64"/>
  </g>
</defs>
</svg>
